<?xml version="1.0" encoding="UTF-8"?>
<svg width="48px" height="32px" viewBox="0 0 48 32" version="1.1" xmlns="http://www.w3.org/2000/svg">
    <g stroke="none" stroke-width="1" fill="none" fill-rule="evenodd">
        <rect fill="#FFFFFF" x="0" y="0" width="48" height="32" rx="4"></rect>
        <path d="M18,14.7272727 L16.4995,19.5 L15,14.7272727 L13,14.7272727 L15.4995,21.2727273 L17.4995,21.2727273 L20,14.7272727 L18,14.7272727 Z M23,16.9090909 C23,15.8181818 22.3333333,15.2727273 21,15.2727273 C19.6666667,15.2727273 19,15.8181818 19,16.9090909 L19,21.2727273 L21,21.2727273 L21,17.4545455 C21,17.0909091 21.1666667,16.9090909 21.5,16.9090909 C21.8333333,16.9090909 22,17.0909091 22,17.4545455 L22,21.2727273 L24,21.2727273 L24,16.9090909 L23,16.9090909 Z M28,14.7272727 L26,14.7272727 L26,13 L24,13 L24,14.7272727 L23,14.7272727 L23,16.3636364 L24,16.3636364 L24,19.5 C24,20.5909091 24.6666667,21.1363636 26,21.1363636 L28,21.1363636 L28,19.5 L26.5,19.5 C26.1666667,19.5 26,19.3181818 26,18.9545455 L26,16.3636364 L28,16.3636364 L28,14.7272727 Z M35,16.9090909 C35,15.8181818 34.3333333,15.2727273 33,15.2727273 C31.6666667,15.2727273 31,15.8181818 31,16.9090909 L31,19.0909091 C31,20.1818182 31.6666667,20.7272727 33,20.7272727 C34.3333333,20.7272727 35,20.1818182 35,19.0909091 L35,16.9090909 Z M33,19.0909091 C33,19.4545455 32.8333333,19.6363636 32.5,19.6363636 C32.1666667,19.6363636 32,19.4545455 32,19.0909091 L32,16.9090909 C32,16.5454545 32.1666667,16.3636364 32.5,16.3636364 C32.8333333,16.3636364 33,16.5454545 33,16.9090909 L33,19.0909091 Z" fill="#1A1F71"></path>
    </g>
</svg>
